PathFileType	4	(X/Y/Z)	C:/Users/opensim2020/Desktop/walking_exp_matlab/subject03_walking06_straight_01.trc	
DataRate	CameraRate	NumFrames	NumMarkers	Units	OrigDataRate	OrigDataStartFrame	OrigNumFrames	
100.00	100.00	9	44	mm	100.00	443	362	
Frame#	Time	LFHD			RFHD			LBHD			RBHD			C7			T10			CLAV			STRN			RBAK			LSHO			LUPA			LELB			LFRM			LWRA			LWRB			LFIN			RSHO			RUPA			RELB			RFRM			RWRA			RWRB			RFIN			LASI			RASI			LPSI			RPSI			LTHI			LKNE			LTIB			LANK			LHEE			LTOE			RTHI			RKNE			RTIB			RANK			RHEE			RTOE			*39			*40			*41			*42			*43			
		X1	Y1	Z1	X2	Y2	Z2	X3	Y3	Z3	X4	Y4	Z4	X5	Y5	Z5	X6	Y6	Z6	X7	Y7	Z7	X8	Y8	Z8	X9	Y9	Z9	X10	Y10	Z10	X11	Y11	Z11	X12	Y12	Z12	X13	Y13	Z13	X14	Y14	Z14	X15	Y15	Z15	X16	Y16	Z16	X17	Y17	Z17	X18	Y18	Z18	X19	Y19	Z19	X20	Y20	Z20	X21	Y21	Z21	X22	Y22	Z22	X23	Y23	Z23	X24	Y24	Z24	X25	Y25	Z25	X26	Y26	Z26	X27	Y27	Z27	X28	Y28	Z28	X29	Y29	Z29	X30	Y30	Z30	X31	Y31	Z31	X32	Y32	Z32	X33	Y33	Z33	X34	Y34	Z34	X35	Y35	Z35	X36	Y36	Z36	X37	Y37	Z37	X38	Y38	Z38	X39	Y39	Z39	X40	Y40	Z40	X41	Y41	Z41	X42	Y42	Z42	X43	Y43	Z43	X44	Y44	Z44	

1	0.000	1359.29846	-1389.08752	1615.32324	1492.03845	-1388.33984	1623.10413	1365.60559	-1521.83020	1585.56958	1496.51929	-1516.43896	1592.68677	1430.91626	-1556.22949	1424.91711	1430.71509	-1614.79602	1118.66846	1419.49805	-1435.20374	1344.08984	1407.90723	-1406.26221	1174.34680	1530.15735	-1610.31396	1252.45361	1268.53687	-1492.01636	1392.36536	1179.98096	-1555.24597	1213.01904	1146.07703	-1582.47168	1097.80383	1115.28833	-1592.75085	971.87012	1113.23328	-1596.87085	849.00342	1079.44226	-1635.52197	870.78802	1060.52441	-1635.84021	790.01605	1581.33875	-1471.46753	1366.85706	1656.72864	-1453.89478	1148.67566	1667.20691	-1429.23230	1038.16858	1664.07031	-1397.64966	905.11127	1620.14648	-1364.03430	814.56494	1668.85132	-1385.72705	805.17993	1652.71997	-1356.96863	738.18481	1302.83630	-1482.93518	940.50244	1535.20276	-1476.31311	928.35614	1353.55701	-1637.56274	988.33124	1504.30676	-1627.75012	993.15869	1260.54358	-1523.33691	643.97827	1313.55933	-1497.72534	475.51672	1310.23083	-1540.17480	281.30185	1352.24194	-1550.69250	71.81882	1390.04370	-1592.66235	37.15668	1374.06934	-1405.46606	40.93952	1589.36255	-1589.24548	651.32257	1561.30139	-1597.41687	469.49347	1579.59277	-1662.58289	293.59024	1546.14893	-1707.46313	77.20236	1494.73877	-1748.91992	40.40201	1546.09485	-1566.36316	37.85376															 
2	0.010	1357.99011	-1386.22888	1615.00769	1490.74451	-1385.70337	1622.44885	1363.92114	-1518.88562	1585.50293	1494.87500	-1513.97559	1592.40198	1429.01721	-1553.85242	1424.42444	1429.84729	-1611.75391	1117.99426	1417.78809	-1432.65259	1343.78479	1406.88025	-1403.28601	1174.15015	1529.03162	-1607.53674	1252.16650	1266.70459	-1489.69446	1391.51538	1179.68140	-1553.80103	1211.50183	1147.42554	-1581.12280	1095.85059	1118.18433	-1593.12561	969.55408	1117.92896	-1599.36963	846.62378	1083.42761	-1637.27466	868.70844	1066.60400	-1639.78870	787.15100	1579.58289	-1468.86621	1367.12903	1654.91150	-1450.39807	1149.03601	1665.14258	-1425.58923	1038.51038	1661.85425	-1393.77344	905.56238	1617.58008	-1360.25464	814.99976	1666.46826	-1381.57776	805.55292	1649.74390	-1352.70288	738.05994	1302.66223	-1479.10742	939.64386	1535.15735	-1473.16577	928.09418	1352.95105	-1633.95227	987.53363	1503.76501	-1624.70044	992.56940	1260.34375	-1521.37939	642.59949	1314.30310	-1496.26794	474.79807	1310.93176	-1540.07910	280.37695	1353.10864	-1551.18896	71.18208	1390.41821	-1593.21912	35.86267	1373.95264	-1405.61731	39.89239	1589.53955	-1585.55688	650.61212	1561.19983	-1593.29932	468.81989	1579.42163	-1660.18994	293.32770	1546.12170	-1707.11133	77.28399	1494.69666	-1748.74609	40.67595	1546.13318	-1566.29602	37.78413															 
3	0.020	1356.61646	-1383.15308	1614.74304	1489.43958	-1383.03162	1621.89685	1362.07483	-1515.93481	1585.54102	1493.00134	-1511.44800	1592.09387	1426.87903	-1551.47791	1424.00476	1428.84424	-1608.68799	1117.28101	1416.04761	-1430.09106	1343.58350	1405.74780	-1400.63379	1173.97437	1527.60010	-1604.96240	1251.97705	1264.69800	-1487.09021	1390.50293	1179.79761	-1551.24634	1209.81067	1148.66809	-1579.45471	1093.69202	1121.14990	-1592.94177	967.22437	1122.94482	-1601.27124	844.16034	1087.45239	-1638.13403	866.39673	1073.12903	-1643.07397	783.98853	1577.79541	-1466.50012	1367.42773	1653.11169	-1447.18994	1149.37634	1663.09131	-1422.15247	1038.86328	1659.67285	-1390.01428	905.96094	1615.26123	-1356.61682	815.63214	1664.16138	-1377.53088	806.03979	1646.70361	-1348.63171	738.31012	1302.64063	-1474.64807	939.11249	1535.08789	-1469.95776	927.88953	1352.19006	-1630.25574	986.74323	1503.11462	-1621.60352	991.83899	1260.66394	-1518.90369	641.31158	1314.86145	-1494.78943	472.95407	1311.02820	-1540.56311	279.67590	1353.37073	-1552.26489	70.76918	1390.61597	-1593.39185	34.58775	1374.25854	-1405.12354	39.37674	1589.64258	-1581.35706	649.89551	1560.98511	-1588.53113	467.97403	1579.20837	-1657.43347	292.91782	1546.15393	-1706.79053	77.56573	1494.69006	-1748.61279	41.01024	1546.20532	-1566.26379	37.70220															 
4	0.030	1355.17151	-1379.76648	1614.49500	1488.09033	-1380.39624	1621.45642	1360.08057	-1512.81311	1585.68933	1491.05957	-1508.80981	1591.97717	1424.57080	-1549.01221	1423.63647	1427.74402	-1605.58179	1116.66187	1414.35352	-1427.47900	1343.48523	1404.92896	-1397.46301	1173.87646	1525.87354	-1602.46985	1251.77087	1262.53369	-1484.42151	1389.50464	1179.47498	-1548.45923	1207.87756	1149.78857	-1577.48254	1091.45776	1124.08948	-1592.11060	964.85425	1128.28650	-1602.32166	841.72321	1091.33887	-1638.31348	863.84583	1080.12354	-1645.87854	780.90771	1575.94495	-1464.23804	1367.69861	1651.20374	-1444.23279	1149.68262	1661.14099	-1418.87622	1039.17908	1657.42432	-1386.40125	906.41901	1612.70984	-1352.97803	816.11041	1661.94568	-1373.56274	806.51776	1644.31641	-1345.02026	738.94629	1302.22253	-1471.49683	937.98303	1535.04700	-1466.65979	927.80042	1351.37585	-1626.53638	986.05743	1502.48157	-1618.43347	991.10181	1260.45728	-1516.64880	640.45728	1315.23608	-1493.65466	472.24542	1311.21777	-1540.30530	279.12946	1353.65381	-1552.02393	70.45090	1390.85815	-1593.12366	34.16344	1373.55029	-1404.46765	38.17741	1589.64429	-1576.65479	649.04150	1560.61841	-1583.70325	467.31195	1578.88831	-1654.41895	292.57690	1546.12671	-1706.31445	77.88091	1494.69421	-1748.37976	41.55935	1546.27649	-1566.14502	37.63980															 
5	0.040	1353.63086	-1376.35498	1614.39172	1486.72327	-1377.64673	1621.16272	1358.00574	-1509.64575	1585.99207	1488.77844	-1506.04590	1592.04565	1422.03906	-1546.46167	1423.47559	1426.62549	-1602.44202	1116.21924	1412.53235	-1424.84961	1343.46313	1403.86426	-1394.41345	1173.91504	1523.80164	-1600.16760	1251.64673	1260.27087	-1481.56873	1388.41931	1178.87512	-1545.92847	1205.93335	1150.70581	-1575.29749	1089.28809	1126.89758	-1590.67749	962.23419	1133.43103	-1602.68909	839.10632	1095.29700	-1637.64404	861.15570	1087.29553	-1647.76843	777.54541	1574.13806	-1462.02588	1368.10046	1649.39600	-1441.41345	1150.12292	1659.22473	-1415.76917	1039.62292	1655.19971	-1382.89880	906.94501	1610.35730	-1349.37244	816.67981	1659.66223	-1369.75818	807.04712	1641.95129	-1341.35254	739.94574	1301.96875	-1467.66248	937.37701	1534.84717	-1463.26355	927.75214	1350.57617	-1622.73694	985.51025	1501.79028	-1615.20435	990.41266	1260.89539	-1514.17957	640.47748	1315.32214	-1493.35510	471.75540	1311.05139	-1539.27051	278.83636	1353.59277	-1551.18201	70.33132	1391.13416	-1594.93591	36.22805	1373.51123	-1403.34277	37.31561	1589.53247	-1571.57202	648.29102	1560.10278	-1578.42505	466.59946	1578.49915	-1651.19165	292.40817	1546.07239	-1705.68237	78.29771	1494.58850	-1748.10205	42.22934	1546.34045	-1565.98413	37.60478															 
6	0.050	1352.07153	-1372.75513	1614.28809	1485.31506	-1374.90417	1620.95947	1355.79492	-1506.46265	1586.37012	1486.64368	-1503.33105	1592.20825	1419.46741	-1543.79822	1423.52222	1425.54138	-1599.35168	1115.97485	1410.65967	-1422.19604	1343.55591	1406.97021	-1394.74939	1172.61572	1521.60327	-1597.85510	1251.64136	1257.97510	-1478.62024	1387.43689	1178.29065	-1542.64233	1203.95300	1151.62378	-1572.67896	1087.10718	1129.60242	-1589.01758	959.56995	1138.70447	-1602.28394	836.62421	1099.15918	-1636.15247	858.33881	1094.56689	-1648.93762	774.30902	1572.34753	-1459.90723	1368.63220	1647.55579	-1438.91638	1150.67212	1657.21252	-1412.84570	1040.15991	1653.13660	-1379.60730	907.58997	1608.06763	-1346.11243	817.27466	1657.57996	-1366.19324	807.79175	1639.49475	-1337.57349	740.36646	1301.54016	-1463.45923	937.18036	1534.50403	-1459.84497	927.96112	1349.96423	-1619.05347	985.34583	1501.15637	-1611.89917	989.78821	1261.31201	-1511.62341	641.01263	1314.70288	-1493.39465	471.59802	1310.58875	-1538.06372	278.74591	1353.45251	-1550.85535	70.13528	1390.81165	-1594.62878	36.17326	1374.05505	-1402.72705	37.12046	1589.26025	-1566.20667	647.57373	1559.47156	-1572.98767	465.96692	1577.93555	-1647.83240	292.33667	1546.00391	-1705.07385	79.09396	1494.50977	-1747.75464	43.25604	1546.41357	-1565.81030	37.57532															 
7	0.060	1350.49512	-1369.12939	1614.21448	1483.84351	-1372.13269	1620.68884	1353.56433	-1502.76123	1586.73108	1484.37207	-1500.61438	1592.39600	1416.89502	-1540.93835	1423.67603	1424.43738	-1596.25806	1115.90601	1408.82373	-1419.55115	1343.62354	1406.24817	-1391.94934	1172.67676	1519.40674	-1595.51990	1251.72583	1255.78943	-1475.63611	1386.49353	1177.99866	-1538.47473	1202.01355	1152.50293	-1569.64307	1084.90149	1132.23315	-1586.42126	956.89441	1143.92480	-1600.99878	834.37616	1103.00549	-1633.90076	855.55750	1101.92334	-1649.27991	771.15582	1570.54126	-1457.93811	1369.38538	1645.70410	-1436.57300	1151.36829	1655.27917	-1410.17542	1040.87354	1651.03955	-1376.59229	908.31940	1606.03552	-1342.69299	818.33392	1655.46924	-1362.83838	808.60760	1637.46509	-1333.89807	741.33685	1301.03235	-1459.28711	937.39911	1533.97644	-1456.38330	928.26385	1349.57422	-1615.41321	985.33820	1500.67261	-1608.51526	989.15228	1261.63403	-1509.36975	641.66254	1315.05603	-1492.07898	472.41058	1310.47083	-1537.21777	278.59366	1353.35974	-1551.02100	70.09129	1390.65027	-1594.72314	36.04680	1374.00354	-1402.77124	36.61908	1588.93164	-1560.67017	646.99872	1558.97522	-1567.35291	465.45676	1577.49158	-1644.41455	292.53088	1545.85999	-1704.24792	79.96317	1494.25671	-1747.37451	44.46573	1546.51563	-1565.62524	37.50407															 
8	0.070	1348.75574	-1365.62061	1614.06970	1482.20032	-1369.16650	1620.42334	1351.29395	-1499.14880	1586.88318	1482.13623	-1497.84131	1592.48450	1414.36414	-1538.07434	1423.80896	1423.23535	-1593.13708	1115.83643	1407.11194	-1416.80835	1343.74768	1400.69775	-1385.09509	1174.27637	1517.21509	-1593.07849	1251.87207	1253.63159	-1472.52820	1385.59204	1177.29407	-1535.10828	1200.30688	1153.41467	-1566.17639	1082.74695	1135.03430	-1583.15479	954.55682	1148.89551	-1598.84827	832.16052	1106.71106	-1630.77637	852.73438	1109.15723	-1648.72424	768.14862	1568.74573	-1455.72449	1370.22559	1643.82837	-1434.28137	1152.07361	1653.28931	-1407.69763	1041.71069	1649.34534	-1373.80066	909.38318	1604.21289	-1339.54492	819.42145	1653.49634	-1359.79407	809.59137	1635.38440	-1330.56323	742.23529	1300.48901	-1455.77002	937.66180	1533.25171	-1452.87610	928.60394	1349.28186	-1611.83813	985.40009	1500.25073	-1605.13074	988.56519	1261.78711	-1507.18616	642.09729	1314.67651	-1491.20129	472.49686	1310.16919	-1537.20715	278.45636	1353.24072	-1551.18091	70.00804	1390.60596	-1594.86328	36.13980	1374.16321	-1402.55334	36.60676	1588.48743	-1555.08069	646.58624	1558.57898	-1561.29553	464.98312	1577.03870	-1640.77026	292.77338	1545.85315	-1703.34094	81.30630	1494.15601	-1746.94263	46.29418	1546.69275	-1565.37378	37.45882															 
9	0.080	1347.12549	-1361.68652	1613.89966	1480.64368	-1366.21045	1620.28491	1349.00427	-1495.61072	1587.07227	1479.89429	-1495.01855	1592.64905	1411.89209	-1535.32422	1423.93030	1422.01428	-1589.93994	1115.77222	1405.37646	-1413.98669	1343.91321	1399.78430	-1382.00195	1174.44666	1515.17383	-1590.54211	1252.19397	1251.59009	-1469.46704	1384.81995	1176.60791	-1531.19763	1198.43005	1154.39136	-1562.24268	1080.63269	1137.63721	-1579.18237	952.12549	1153.55908	-1595.92554	830.06860	1110.36890	-1626.86951	849.94458	1115.90552	-1647.49939	765.28864	1566.92957	-1453.61389	1371.10364	1642.03748	-1432.24121	1152.96301	1651.40942	-1405.46375	1042.65405	1647.48352	-1371.19543	910.39075	1602.44678	-1336.54395	820.58307	1651.68762	-1356.94006	810.67676	1633.60571	-1327.47852	743.58582	1299.55615	-1451.93933	938.04791	1532.45654	-1449.39124	929.07458	1348.94849	-1608.38745	985.53259	1499.73523	-1601.83667	988.21118	1261.82898	-1505.20288	642.47064	1314.32446	-1489.98047	472.44382	1309.70813	-1537.40308	278.32324	1353.09155	-1551.18799	69.88902	1390.37402	-1594.80127	35.98193	1374.02893	-1402.33423	36.29179	1587.94580	-1549.45703	646.48187	1558.43799	-1554.87646	464.75992	1576.83374	-1636.86548	293.38232	1545.82019	-1702.33826	82.89780	1493.80945	-1746.50085	48.50295	1546.96802	-1565.17090	37.43979															 
